<svg width="260" height="58" viewBox="0 0 260 58" fill="none" xmlns="http://www.w3.org/2000/svg">
<path d="M1.64104 10.767C1.76618 7.54639 4.41345 5 7.63652 5H111.842C115.216 5 117.927 7.78256 117.84 11.1564L116.901 47.1564C116.816 50.4081 114.156 53 110.903 53H6.23767C2.83259 53 0.109983 50.1695 0.242193 46.767L1.64104 10.767Z" fill="#1E1E1E"/>
<g filter="url(#filter0_d_3531_6)">
<path d="M5.976 14.438H11.676L19.846 32.222L28.054 14.438H33.716V41H28.206V25.914L21.176 41H18.516L11.524 25.914V41H5.976V14.438ZM48.1925 41.57C44.6965 41.57 41.9478 40.734 39.9465 39.062C37.9452 37.3647 36.9445 34.996 36.9445 31.956C36.9445 28.9413 37.8312 26.56 39.6045 24.812C41.4032 23.064 43.9618 22.19 47.2805 22.19C49.4592 22.19 51.3085 22.5953 52.8285 23.406C54.3485 24.2167 55.5012 25.344 56.2865 26.788C57.0718 28.2067 57.4645 29.8153 57.4645 31.614V33.932H42.4165C42.8218 36.2627 45.0005 37.428 48.9525 37.428C50.1178 37.428 51.3212 37.3267 52.5625 37.124C53.8038 36.9213 54.8805 36.6427 55.7925 36.288V40.316C54.9058 40.696 53.7659 41 52.3725 41.228C50.9792 41.456 49.5858 41.57 48.1925 41.57ZM52.0305 30.208C51.9545 28.992 51.4985 28.0547 50.6625 27.396C49.8265 26.712 48.6738 26.37 47.2045 26.37C45.7605 26.37 44.6205 26.712 43.7845 27.396C42.9485 28.08 42.4925 29.0173 42.4165 30.208H52.0305ZM69.5301 41.57C67.6554 41.57 65.9834 41.1773 64.5141 40.392C63.0701 39.5813 61.9301 38.454 61.0941 37.01C60.2834 35.5407 59.8781 33.8433 59.8781 31.918C59.8781 30.018 60.2834 28.3333 61.0941 26.864C61.9048 25.3947 63.0448 24.2547 64.5141 23.444C65.9834 22.608 67.6554 22.19 69.5301 22.19C70.8981 22.19 72.1521 22.38 73.2921 22.76C74.4321 23.14 75.3948 23.6847 76.1801 24.394V12.918H81.9181V41H76.3701V39.024C75.4328 39.9107 74.4068 40.5567 73.2921 40.962C72.2028 41.3673 70.9488 41.57 69.5301 41.57ZM71.0121 37.124C72.2028 37.124 73.2541 36.8073 74.1661 36.174C75.1034 35.5407 75.7748 34.692 76.1801 33.628V30.17C75.8254 29.1313 75.1668 28.2953 74.2041 27.662C73.2668 27.0033 72.2028 26.674 71.0121 26.674C69.4668 26.674 68.2001 27.1553 67.2121 28.118C66.2494 29.0807 65.7681 30.3473 65.7681 31.918C65.7681 33.4887 66.2494 34.7553 67.2121 35.718C68.2001 36.6553 69.4668 37.124 71.0121 37.124ZM89.0636 19.948C88.1769 19.948 87.4296 19.6567 86.8216 19.074C86.2136 18.4913 85.9096 17.7567 85.9096 16.87C85.9096 16.0087 86.2136 15.2867 86.8216 14.704C87.4296 14.096 88.1769 13.792 89.0636 13.792C89.9503 13.792 90.6976 14.096 91.3056 14.704C91.9136 15.2867 92.2176 16.0087 92.2176 16.87C92.2176 17.7567 91.9136 18.4913 91.3056 19.074C90.6976 19.6567 89.9503 19.948 89.0636 19.948ZM86.1756 22.76H91.9516V41H86.1756V22.76ZM102.954 41.57C100.724 41.57 98.9004 41.0127 97.4818 39.898C96.0884 38.758 95.3918 37.2127 95.3918 35.262C95.3918 33.2353 96.0631 31.6647 97.4058 30.55C98.7484 29.41 100.648 28.84 103.106 28.84C104.195 28.84 105.234 28.954 106.222 29.182C107.21 29.41 108.084 29.7267 108.844 30.132V29.676C108.844 28.536 108.438 27.7 107.628 27.168C106.817 26.636 105.576 26.37 103.904 26.37C101.674 26.37 99.6224 26.788 97.7478 27.624V23.444C98.5584 23.0893 99.6098 22.798 100.902 22.57C102.194 22.3167 103.486 22.19 104.778 22.19C108.071 22.19 110.528 22.874 112.15 24.242C113.771 25.5847 114.582 27.472 114.582 29.904V41H109.186V39.328C107.64 40.8227 105.563 41.57 102.954 41.57ZM104.512 37.77C105.449 37.77 106.298 37.5927 107.058 37.238C107.818 36.8833 108.413 36.3893 108.844 35.756V33.932C107.552 33.0707 106.133 32.64 104.588 32.64C103.524 32.64 102.7 32.868 102.118 33.324C101.56 33.7547 101.282 34.4007 101.282 35.262C101.282 36.0727 101.56 36.6933 102.118 37.124C102.675 37.5547 103.473 37.77 104.512 37.77ZM118.38 14.438H136.81V19.264H124.156V25.42H133.466V30.056H124.156V36.174H136.81V41H118.38V14.438ZM145.71 31.576L138.414 22.76H144.836L148.902 27.7L153.006 22.76H159.428L152.094 31.576L159.922 41H153.576L148.902 35.414L144.266 41H137.882L145.71 31.576ZM163.134 22.76H168.682V24.774C170.532 23.0513 172.812 22.19 175.522 22.19C177.422 22.19 179.094 22.5953 180.538 23.406C182.008 24.1913 183.148 25.3187 183.958 26.788C184.769 28.232 185.174 29.9167 185.174 31.842C185.174 33.742 184.769 35.4267 183.958 36.896C183.148 38.3653 182.008 39.518 180.538 40.354C179.094 41.1647 177.422 41.57 175.522 41.57C174.23 41.57 173.002 41.38 171.836 41C170.671 40.62 169.683 40.0753 168.872 39.366V49.322H163.134V22.76ZM174.078 37.086C175.624 37.086 176.878 36.6047 177.84 35.642C178.828 34.6793 179.322 33.4127 179.322 31.842C179.322 30.2713 178.828 29.0173 177.84 28.08C176.878 27.1427 175.624 26.674 174.078 26.674C172.888 26.674 171.824 26.9907 170.886 27.624C169.949 28.2573 169.278 29.0933 168.872 30.132V33.59C169.252 34.654 169.911 35.5027 170.848 36.136C171.811 36.7693 172.888 37.086 174.078 37.086ZM188.406 12.918H194.144V41H188.406V12.918ZM204.93 41.57C202.701 41.57 200.877 41.0127 199.458 39.898C198.065 38.758 197.368 37.2127 197.368 35.262C197.368 33.2353 198.04 31.6647 199.382 30.55C200.725 29.41 202.625 28.84 205.082 28.84C206.172 28.84 207.21 28.954 208.198 29.182C209.186 29.41 210.06 29.7267 210.82 30.132V29.676C210.82 28.536 210.415 27.7 209.604 27.168C208.794 26.636 207.552 26.37 205.88 26.37C203.651 26.37 201.599 26.788 199.724 27.624V23.444C200.535 23.0893 201.586 22.798 202.878 22.57C204.17 22.3167 205.462 22.19 206.754 22.19C210.048 22.19 212.505 22.874 214.126 24.242C215.748 25.5847 216.558 27.472 216.558 29.904V41H211.162V39.328C209.617 40.8227 207.54 41.57 204.93 41.57ZM206.488 37.77C207.426 37.77 208.274 37.5927 209.034 37.238C209.794 36.8833 210.39 36.3893 210.82 35.756V33.932C209.528 33.0707 208.11 32.64 206.564 32.64C205.5 32.64 204.677 32.868 204.094 33.324C203.537 33.7547 203.258 34.4007 203.258 35.262C203.258 36.0727 203.537 36.6933 204.094 37.124C204.652 37.5547 205.45 37.77 206.488 37.77ZM220.357 22.76H225.905V25.002C226.741 24.0647 227.729 23.368 228.869 22.912C230.034 22.4307 231.25 22.19 232.517 22.19C235 22.19 236.849 22.8613 238.065 24.204C239.306 25.5213 239.927 27.3073 239.927 29.562V41H234.189V30.208C234.189 27.852 233.1 26.674 230.921 26.674C229.958 26.674 229.059 26.9147 228.223 27.396C227.387 27.852 226.678 28.536 226.095 29.448V41H220.357V22.76ZM251.374 41.57C249.246 41.57 247.624 40.9873 246.51 39.822C245.42 38.6313 244.876 36.9847 244.876 34.882V26.902H242.216V22.76H244.876V17.288H250.614V22.76H254.908V26.902H250.614V34.122C250.614 35.186 250.816 35.9587 251.222 36.44C251.627 36.896 252.349 37.124 253.388 37.124C254.224 37.124 255.022 36.9213 255.782 36.516V40.81C254.616 41.3167 253.147 41.57 251.374 41.57Z" fill="white"/>
</g>
<defs>
<filter id="filter0_d_3531_6" x="1.97595" y="12.918" width="257.806" height="44.4038" filterUnits="userSpaceOnUse" color-interpolation-filters="sRGB">
<feFlood flood-opacity="0" result="BackgroundImageFix"/>
<feColorMatrix in="SourceAlpha" type="matrix" values="0 0 0 0 0 0 0 0 0 0 0 0 0 0 0 0 0 0 127 0" result="hardAlpha"/>
<feOffset dy="4"/>
<feGaussianBlur stdDeviation="2"/>
<feComposite in2="hardAlpha" operator="out"/>
<feColorMatrix type="matrix" values="0 0 0 0 0 0 0 0 0 0 0 0 0 0 0 0 0 0 0.25 0"/>
<feBlend mode="normal" in2="BackgroundImageFix" result="effect1_dropShadow_3531_6"/>
<feBlend mode="normal" in="SourceGraphic" in2="effect1_dropShadow_3531_6" result="shape"/>
</filter>
</defs>
</svg>
